# File created by Blade
# Date/Time:  Thu Jan 22 16:16:06 2015
# Frame Rate: 120.000 fps
#------------------------------------------------------
:FULLY-SPECIFIED
:DEGREES
1243
root 0.968300 37.693594 -2.268486 -2.678412 -5.418833 -2.923172
RightUpLeg -0.213944 -6.034538 -4.848471
RightLeg 15.833621 -0.000000 -0.000000
RightFoot -18.727028 -10.443833 21.982002
RightToeBase 3.323859 -0.000000 -0.000000
LeftUpLeg 5.429785 -1.644493 4.514124
LeftLeg 7.196076 -0.000000 -0.000000
LeftFoot -12.413723 9.014724 -19.132710
LeftToeBase 9.516281 -0.000000 -0.000000
Spine 17.250677 -3.172802 -2.062671
RightShoulder -3.562821 -10.967620 -27.809141
RightArm 10.969327 26.093482 36.741386
RightForeArm 12.509012 -0.000000 18.025881
RightHand 4.848169 0.000000 -3.826703
RightHandThumb1 -24.326973 -0.000000 -32.862282
LeftShoulder -23.860741 32.208557 17.522917
LeftArm 54.914248 -47.865007 -63.750755
LeftForeArm 35.894662 0.000000 10.626225
LeftHand -21.419193 -0.000000 2.846559
LeftHandThumb1 -26.253704 0.000000 33.147579
Head -23.695752 12.481357 0.296791
1244
root 0.971261 37.704270 -2.294578 -2.628547 -5.443609 -3.021726
RightUpLeg -0.192054 -6.491642 -4.310688
RightLeg 16.054578 -0.000000 -0.000000
RightFoot -18.817975 -10.038670 21.989013
RightToeBase 2.986968 -0.000000 -0.000000
LeftUpLeg 5.426090 -1.521967 4.636205
LeftLeg 7.040246 -0.000000 -0.000000
LeftFoot -12.269689 8.933981 -19.091839
LeftToeBase 9.515164 -0.000000 -0.000000
Spine 17.154161 -3.168208 -2.055264
RightShoulder -3.575426 -10.836726 -27.824925
RightArm 10.878060 26.065239 36.706326
RightForeArm 12.371448 0.000000 17.996347
RightHand 4.780486 -0.000000 -3.737873
RightHandThumb1 -24.326973 -0.000000 -32.862282
LeftShoulder -23.852387 32.237071 17.657150
LeftArm 54.954868 -48.092054 -63.732643
LeftForeArm 35.761990 -0.000000 10.499411
LeftHand -21.318950 -0.000000 2.864304
LeftHandThumb1 -26.253704 0.000000 33.147579
Head -23.712915 12.447109 0.435268
1245
root 0.970464 37.715486 -2.316797 -2.592591 -5.452866 -3.134805
RightUpLeg -0.066856 -6.914547 -3.751972
RightLeg 16.030008 -0.000000 -0.000000
RightFoot -18.876562 -9.624000 22.258309
RightToeBase 2.574025 -0.000000 -0.000000
LeftUpLeg 5.461179 -1.406522 4.779837
LeftLeg 6.840694 -0.000000 -0.000000
LeftFoot -12.144920 8.826706 -19.118351
LeftToeBase 9.704803 -0.000000 -0.000000
Spine 17.065298 -3.206095 -2.032465
RightShoulder -3.561313 -10.831435 -27.817537
RightArm 10.863171 26.113441 36.670871
RightForeArm 12.329362 -0.000000 17.969794
RightHand 4.672099 -0.000000 -3.707272
RightHandThumb1 -24.326973 -0.000000 -32.862282
LeftShoulder -23.903976 32.240579 17.740586
LeftArm 55.053485 -48.309918 -63.724379
LeftForeArm 35.802424 -0.000000 10.324464
LeftHand -21.339784 -0.000000 2.943225
LeftHandThumb1 -26.253704 0.000000 33.147579
Head -23.730367 12.448643 0.537059
1246
root 0.974443 37.722664 -2.333524 -2.584890 -5.441363 -3.168315
RightUpLeg 0.174275 -7.386320 -3.326748
RightLeg 15.768637 -0.000000 -0.000000
RightFoot -18.688307 -9.199005 22.433179
RightToeBase 2.672763 -0.000000 -0.000000
LeftUpLeg 5.546059 -1.372807 4.824328
LeftLeg 6.595783 -0.000000 -0.000000
LeftFoot -11.992513 8.796851 -19.100589
LeftToeBase 9.696582 -0.000000 -0.000000
Spine 16.970685 -3.203828 -2.079082
RightShoulder -3.556138 -10.822768 -27.833573
RightArm 10.806387 26.238360 36.682421
RightForeArm 12.147271 -0.000000 17.956546
RightHand 4.562853 -0.000000 -3.585790
RightHandThumb1 -24.326973 -0.000000 -32.862282
LeftShoulder -23.896011 32.227243 17.875328
LeftArm 55.185948 -48.511316 -63.759441
LeftForeArm 35.891379 -0.000000 10.152192
LeftHand -21.441195 -0.000000 3.004218
LeftHandThumb1 -26.253704 0.000000 33.147579
Head -23.677286 12.387122 0.696945
1247
root 0.978288 37.727846 -2.347804 -2.555981 -5.404228 -3.178761
RightUpLeg 0.495451 -7.739010 -2.941689
RightLeg 15.244730 -0.000000 -0.000000
RightFoot -18.364224 -8.706349 22.724351
RightToeBase 2.159585 -0.000000 -0.000000
LeftUpLeg 5.599655 -1.296151 4.850522
LeftLeg 6.367363 -0.000000 -0.000000
LeftFoot -11.824834 8.720111 -19.036295
LeftToeBase 9.685658 -0.000000 -0.000000
Spine 16.839934 -3.217305 -2.136754
RightShoulder -3.573811 -10.753307 -27.854182
RightArm 10.741793 26.145849 36.627454
RightForeArm 12.177451 0.000000 17.821680
RightHand 4.590042 -0.000000 -3.551675
RightHandThumb1 -24.326973 -0.000000 -32.862282
LeftShoulder -23.871546 32.226518 18.006129
LeftArm 55.208962 -48.664958 -63.660482
LeftForeArm 35.724341 -0.000000 9.953993
LeftHand -21.338464 -0.000000 2.961082
LeftHandThumb1 -26.253704 0.000000 33.147579
Head -23.613323 12.318343 0.825496
1248
root 0.985242 37.729678 -2.358481 -2.529030 -5.342060 -3.127899
RightUpLeg 0.908402 -8.043941 -2.670848
RightLeg 14.461022 -0.000000 -0.000000
RightFoot -17.820229 -8.200820 22.981595
RightToeBase 1.990735 -0.000000 -0.000000
LeftUpLeg 5.647242 -1.223826 4.818981
LeftLeg 6.140604 -0.000000 -0.000000
LeftFoot -11.639095 8.589459 -19.007040
LeftToeBase 9.709073 -0.000000 -0.000000
Spine 16.680080 -3.264458 -2.254327
RightShoulder -3.583464 -10.693336 -27.873921
RightArm 10.656032 26.074876 36.578567
RightForeArm 12.254877 -0.000000 17.757483
RightHand 4.597689 0.000000 -3.450139
RightHandThumb1 -24.326973 -0.000000 -32.862282
LeftShoulder -23.881004 32.175946 18.123561
LeftArm 55.309408 -48.819845 -63.641598
LeftForeArm 35.793551 -0.000000 9.756280
LeftHand -21.432927 -0.000000 2.936893
LeftHandThumb1 -26.253704 0.000000 33.147579
Head -23.490049 12.245874 0.956273
1249
root 0.997952 37.727711 -2.365699 -2.509883 -5.274351 -2.991523
RightUpLeg 1.387312 -8.133285 -2.495479
RightLeg 13.486571 -0.000000 -0.000000
RightFoot -17.022154 -7.921840 23.318561
RightToeBase 1.969042 -0.000000 -0.000000
LeftUpLeg 5.735677 -1.177004 4.683663
LeftLeg 5.844687 -0.000000 -0.000000
LeftFoot -11.444120 8.511977 -18.948268
LeftToeBase 9.705523 -0.000000 -0.000000
Spine 16.502624 -3.312107 -2.451297
RightShoulder -3.563735 -10.690729 -27.890034
RightArm 10.591707 26.131868 36.548828
RightForeArm 12.164970 -0.000000 17.715299
RightHand 4.479674 0.000000 -3.423539
RightHandThumb1 -24.326973 -0.000000 -32.862282
LeftShoulder -23.895664 32.191149 18.217912
LeftArm 55.441178 -48.963476 -63.612577
LeftForeArm 35.819666 0.000000 9.527474
LeftHand -21.531880 -0.000000 3.015199
LeftHandThumb1 -26.253704 0.000000 33.147579
Head -23.347781 12.213452 1.059197
1250
root 1.010508 37.721734 -2.370482 -2.478849 -5.193201 -2.828303
RightUpLeg 1.903890 -8.232172 -2.378010
RightLeg 12.344222 -0.000000 -0.000000
RightFoot -15.890653 -7.808633 23.471036
RightToeBase 1.166316 -0.000000 -0.000000
LeftUpLeg 5.812255 -1.159476 4.513424
LeftLeg 5.544870 -0.000000 -0.000000
LeftFoot -11.263224 8.469432 -18.886611
LeftToeBase 9.742976 -0.000000 -0.000000
Spine 16.285006 -3.334326 -2.647882
RightShoulder -3.581711 -10.696297 -27.942791
RightArm 10.541058 26.168063 36.544891
RightForeArm 12.105062 -0.000000 17.622030
RightHand 4.382646 -0.000000 -3.275896
RightHandThumb1 -24.326973 -0.000000 -32.862282
LeftShoulder -23.843699 32.131112 18.357107
LeftArm 55.481181 -49.070924 -63.519171
LeftForeArm 35.873842 -0.000000 9.302836
LeftHand -21.584343 -0.000000 2.974847
LeftHandThumb1 -26.253704 0.000000 33.147579
Head -23.116173 12.050021 1.142802
1251
root 1.026406 37.712929 -2.371686 -2.447529 -5.118116 -2.622513
RightUpLeg 2.462693 -8.156769 -2.312912
RightLeg 11.068687 -0.000000 -0.000000
RightFoot -14.494994 -8.041958 23.613635
RightToeBase 1.018875 -0.000000 -0.000000
LeftUpLeg 5.913701 -1.153457 4.296469
LeftLeg 5.203493 -0.000000 -0.000000
LeftFoot -11.089348 8.424169 -18.858938
LeftToeBase 9.802161 -0.000000 -0.000000
Spine 16.044240 -3.339348 -2.863655
RightShoulder -3.615704 -10.654264 -27.981934
RightArm 10.451702 26.237384 36.511226
RightForeArm 11.976944 -0.000000 17.549069
RightHand 4.373772 -0.000000 -3.167692
RightHandThumb1 -24.326973 -0.000000 -32.862282
LeftShoulder -23.853396 32.087278 18.396390
LeftArm 55.560999 -49.112522 -63.303706
LeftForeArm 35.749538 -0.000000 8.997606
LeftHand -21.550762 -0.000000 3.217551
LeftHandThumb1 -26.253704 0.000000 33.147579
Head -22.886936 11.952035 1.167872
1252
root 1.041415 37.699883 -2.369653 -2.400214 -5.057425 -2.384754
RightUpLeg 3.054458 -7.955513 -2.277644
RightLeg 9.647810 -0.000000 -0.000000
RightFoot -12.863774 -8.674055 22.840175
RightToeBase 2.083986 -0.000000 -0.000000
LeftUpLeg 6.037524 -1.077148 4.052249
LeftLeg 4.799472 -0.000000 -0.000000
LeftFoot -10.850310 8.358329 -18.697911
LeftToeBase 9.689295 -0.000000 -0.000000
Spine 15.747810 -3.304229 -3.098266
RightShoulder -3.667384 -10.742814 -28.032352
RightArm 10.462965 26.359969 36.507949
RightForeArm 11.901484 -0.000000 17.443836
RightHand 4.218521 -0.000000 -2.884938
RightHandThumb1 -24.326973 -0.000000 -32.862282
LeftShoulder -23.868840 32.133298 18.418624
LeftArm 55.868622 -49.198087 -63.343441
LeftForeArm 35.759120 -0.000000 8.754801
LeftHand -21.706999 -0.000000 3.167618
LeftHandThumb1 -26.253704 0.000000 33.147579
Head -22.581143 11.808601 1.204990
1253
root 1.055447 37.682002 -2.368489 -2.330559 -5.041881 -2.103068
RightUpLeg 3.636566 -7.663980 -2.251372
RightLeg 8.145991 -0.000000 -0.000000
RightFoot -11.541525 -10.185764 19.023283
RightToeBase 5.753601 -0.000000 -0.000000
LeftUpLeg 6.096735 -0.842308 3.773961
LeftLeg 4.484222 -0.000000 -0.000000
LeftFoot -10.704972 8.230838 -18.583885
LeftToeBase 9.849510 -0.000000 -0.000000
Spine 15.400659 -3.222926 -3.369935
RightShoulder -3.703487 -10.753912 -28.094512
RightArm 10.405644 26.376109 36.464273
RightForeArm 11.820990 -0.000000 17.339943
RightHand 4.028186 -0.000000 -2.683368
RightHandThumb1 -24.326973 -0.000000 -32.862282
LeftShoulder -23.864486 32.065523 18.500627
LeftArm 56.045616 -49.219695 -63.286286
LeftForeArm 35.746144 -0.000000 8.487715
LeftHand -21.732398 -0.000000 3.179064
LeftHandThumb1 -26.253704 0.000000 33.147579
Head -22.214766 11.658909 1.218625
1254
root 1.074265 37.660313 -2.363594 -2.237489 -5.030582 -1.757369
RightUpLeg 4.173178 -7.379054 -2.337331
RightLeg 6.591783 -0.000000 -0.000000
RightFoot -11.040224 -11.220935 17.055631
RightToeBase 7.531968 -0.000000 -0.000000
LeftUpLeg 6.191568 -0.749440 3.431658
LeftLeg 4.059798 -0.000000 -0.000000
LeftFoot -10.512674 8.090302 -18.587460
LeftToeBase 9.950033 -0.000000 -0.000000
Spine 14.992269 -3.123079 -3.698941
RightShoulder -3.736745 -10.810035 -28.120449
RightArm 10.329601 26.421995 36.357675
RightForeArm 11.820157 -0.000000 17.256914
RightHand 3.845114 -0.000000 -2.507518
RightHandThumb1 -24.326973 -0.000000 -32.862282
LeftShoulder -23.851541 31.968923 18.579428
LeftArm 56.189223 -49.224586 -63.183967
LeftForeArm 35.703461 -0.000000 8.237815
LeftHand -21.848104 -0.000000 3.036460
LeftHandThumb1 -26.253704 0.000000 33.147579
Head -21.820416 11.513001 1.220833
